<?xml version="1.0" encoding="UTF-8"?>
<!DOCTYPE svg PUBLIC "-//W3C//DTD SVG 1.1//EN" "http://www.w3.org/Graphics/SVG/1.1/DTD/svg11.dtd">
<!-- Creator: CorelDRAW X7 -->
<svg xmlns="http://www.w3.org/2000/svg" xml:space="preserve" width="132.768mm" height="30.2602mm" version="1.1" style="shape-rendering:geometricPrecision; text-rendering:geometricPrecision; image-rendering:optimizeQuality; fill-rule:evenodd; clip-rule:evenodd"
viewBox="0 0 13277 3026"
 xmlns:xlink="http://www.w3.org/1999/xlink">
 <defs>
  <style type="text/css">
   <![CDATA[
    .fil1 {fill:#F2F3F3}
    .fil0 {fill:#F2F3F3;fill-rule:nonzero}
   ]]>
  </style>
 </defs>
 <g id="Camada_x0020_1">
  <metadata id="CorelCorpID_0Corel-Layer"/>
  <g id="_850941008">
   <polygon class="fil0" points="11391,2591 11391,2669 11569,2669 11569,3026 11647,3026 11647,2669 11825,2669 11825,2591 "/>
   <path id="1" class="fil0" d="M12005 2669l318 0 0 -78 -318 0c-64,0 -117,53 -117,117l0 201c0,64 53,117 117,117l318 0 0 -78 -318 0c-22,0 -40,-18 -40,-39l0 -82 280 0 0 -78 -280 0 0 -41c0,-21 18,-39 40,-39z"/>
   <path id="2" class="fil0" d="M12562 2669l218 0 0 -78 -218 0c-120,0 -217,98 -217,218 0,119 97,217 217,217l218 0 0 -78 -218 0c-77,0 -140,-62 -140,-139 0,-78 63,-140 140,-140z"/>
   <polygon id="3" class="fil0" points="13199,2591 13199,2749 12919,2749 12919,2591 12842,2591 12842,3026 12919,3026 12919,2827 13199,2827 13199,3026 13277,3026 13277,2591 "/>
   <path class="fil0" d="M624 418l1695 0 0 -415 -1695 0c-345,0 -624,282 -624,627l0 1068c0,345 279,627 624,627l1695 0 0 -414 -1695 0c-116,0 -213,-97 -213,-213l0 -438 1493 0 0 -414 -1493 0 0 -216c0,-116 97,-212 213,-212z"/>
   <path id="1" class="fil0" d="M3347 1907c-146,-20 -262,-136 -282,-282l0 -1622 -415 0 0 1583c0,116 27,225 77,325 69,146 189,265 335,338 99,50 209,76 325,76l1177 0 0 -414 -1217 -4z"/>
   <path id="2" class="fil0" d="M5593 1907c-146,-20 -262,-136 -282,-282l0 -1622 -415 0 0 1583c0,116 27,225 76,325 70,146 189,265 335,338 100,50 209,76 325,76l1178 0 0 -414 -1217 -4z"/>
   <path id="3" class="fil0" d="M8080 0l-637 826 -636 -826 -524 0 898 1164 0 0 57 70 0 1088 414 0 0 -1095 50 -63 0 0 899 -1164 0 0 -521 0zm-1801 2332l7 -7 -7 0 0 7zm2322 0l0 -7 -3 0 3 7z"/>
   <path id="4" class="fil0" d="M9517 3c-641,0 -1161,521 -1161,1161 0,640 520,1161 1161,1161 640,0 1161,-521 1161,-1161 0,-640 -521,-1161 -1161,-1161zm0 1908c-412,0 -747,-335 -747,-747 0,-411 335,-746 747,-746 411,0 746,335 746,746 0,412 -335,747 -746,747z"/>
   <polygon id="5" class="fil0" points="12834,3 12834,1481 11341,331 10926,13 10926,2325 11341,2325 11341,858 12834,2007 13248,2325 13248,7 "/>
   <path class="fil1" d="M122 2598l11063 0 0 105c0,58 -47,105 -105,105l-11063 0 0 -105c0,-58 47,-105 105,-105z"/>
  </g>
 </g>
</svg>
